<?xml version="1.0" encoding="UTF-8"?>
<svg width="28px" height="28px" viewBox="0 0 28 28" version="1.1" xmlns="http://www.w3.org/2000/svg" xmlns:xlink="http://www.w3.org/1999/xlink">
    <!-- Generator: Sketch 46.2 (44496) - http://www.bohemiancoding.com/sketch -->
    <title>2</title>
    <desc>Created with Sketch.</desc>
    <defs></defs>
    <g id="Page-1" stroke="none" stroke-width="1" fill="none" fill-rule="evenodd" >
        <g id="20.Add_post" transform="translate(-36.000000, -226.000000)" fill-rule="nonzero" fill="#FFFFFF">
            <path d="M36.4649035,234.683524 L49.5852929,241.709294 C49.7147716,241.778707 49.8573858,241.813355 50,241.813355 C50.1426142,241.813355 50.2852284,241.778707 50.4147071,241.709294 L63.5350965,234.683524 C63.8212631,234.530251 64,234.231692 64,233.906707 C64,233.581721 63.8213804,233.283162 63.5350965,233.129889 L50.4147071,226.10412 C50.1556324,225.965293 49.8443676,225.965293 49.5852929,226.10412 L36.4649035,233.129889 C36.1787369,233.283162 36,233.581721 36,233.906707 C36,234.231692 36.1787369,234.530251 36.4649035,234.683524 Z M50,227.879853 L61.2550284,233.906707 L50,239.93356 L38.7449716,233.906707 L50,227.879853 Z M63.5350965,239.225326 C63.8213804,239.378599 64,239.677158 64,240.002143 C64,240.327129 63.8212631,240.625688 63.5350965,240.778961 L50.4147071,247.80473 C50.2852284,247.874144 50.1426142,247.908792 50,247.908792 C49.8573858,247.908792 49.7147716,247.874144 49.5852929,247.80473 L36.4649035,240.778961 C36.1786196,240.625688 36,240.327129 36,240.002143 C36,239.677158 36.1787369,239.378599 36.4649035,239.225326 L40.3172462,237.162543 C40.745558,236.933163 41.278602,237.095009 41.5076526,237.523939 C41.7367032,237.952868 41.5750894,238.48668 41.1466604,238.716061 L38.7449716,240.002143 L50,246.028879 L61.2550284,240.002026 L58.8809007,238.730742 C58.4524717,238.501361 58.2908579,237.967666 58.5199085,237.53862 C58.7489591,237.109691 59.2818859,236.947727 59.7103149,237.177225 L63.5350965,239.225326 Z M63.5350965,245.316417 C63.8213804,245.46969 64,245.768366 64,246.093352 C64,246.418337 63.8212631,246.716896 63.5350965,246.870169 L50.4147071,253.895939 C50.2852284,253.965352 50.1426142,254 50,254 C49.8573858,254 49.7147716,253.965352 49.5852929,253.895939 L36.4649035,246.870169 C36.1786196,246.716896 36,246.418337 36,246.093352 C36,245.768366 36.1787369,245.469807 36.4649035,245.316534 L40.1440216,243.34642 C40.5723333,243.116922 41.1053774,243.278886 41.334428,243.707815 C41.5634786,244.136745 41.4018648,244.670557 40.9734358,244.899938 L38.7449716,246.093234 L50,252.11997 L61.2550284,246.093117 L59.0021697,244.886783 C58.5737407,244.657402 58.4121269,244.123708 58.6411775,243.694661 C58.8702281,243.265732 59.4030376,243.103885 59.8315839,243.333266 L63.5350965,245.316417 Z" id="2"></path>
        </g>
    </g>
</svg>