<?xml version="1.0" encoding="UTF-8"?>
<svg width="23px" height="24px" viewBox="0 0 23 24" version="1.1" xmlns="http://www.w3.org/2000/svg" xmlns:xlink="http://www.w3.org/1999/xlink">
    <!-- Generator: Sketch 46.2 (44496) - http://www.bohemiancoding.com/sketch -->
    <title>calendar</title>
    <desc>Created with Sketch.</desc>
    <defs></defs>
    <g id="Page-1" stroke="none" stroke-width="1" fill="none" fill-rule="evenodd">
        <g id="19.Publishing-(calendar)-inner" transform="translate(-861.000000, -526.000000)" fill-rule="nonzero" fill="#B7C5CE">
            <path d="M883.298662,527.405266 L878.70238,527.405266 L878.70238,526.707467 C878.70238,526.316827 878.388245,526 878.000925,526 C877.613605,526 877.29947,526.316827 877.29947,526.707467 L877.29947,527.405266 L873.201455,527.405266 L873.201455,526.707467 C873.201455,526.316827 872.88732,526 872.5,526 C872.11268,526 871.798545,526.316827 871.798545,526.707467 L871.798545,527.405266 L867.874724,527.405266 L867.874724,526.707467 C867.874724,526.316827 867.560589,526 867.173269,526 C866.78595,526 866.471815,526.316827 866.471815,526.707467 L866.471815,527.405266 L861.701455,527.405266 C861.314135,527.405266 861,527.722093 861,528.112733 L861,544.098191 C861,544.48883 861.314135,544.805658 861.701455,544.805658 L866.00675,544.805658 C866.696631,547.778671 869.34509,550 872.5,550 C875.65491,550 878.303369,547.778553 878.99325,544.805658 L883.298545,544.805658 C883.685865,544.805658 884,544.48883 884,544.098191 L884,528.112733 C884.000117,527.722093 883.686099,527.405266 883.298662,527.405266 Z M866.471815,528.8202 L866.471815,529.459515 C866.471815,529.850155 866.78595,530.166982 867.173269,530.166982 C867.560589,530.166982 867.874724,529.850155 867.874724,529.459515 L867.874724,528.8202 L871.798545,528.8202 L871.798545,529.459515 C871.798545,529.850155 872.11268,530.166982 872.5,530.166982 C872.88732,530.166982 873.201455,529.850155 873.201455,529.459515 L873.201455,528.8202 L877.29947,528.8202 L877.29947,529.459515 C877.29947,529.850155 877.613605,530.166982 878.000925,530.166982 C878.388245,530.166982 878.70238,529.850155 878.70238,529.459515 L878.70238,528.8202 L882.597207,528.8202 L882.597207,531.713269 L862.40291,531.713269 L862.40291,528.8202 L866.471815,528.8202 L866.471815,528.8202 Z M872.5,548.585066 C869.595743,548.585066 867.232893,546.201962 867.232893,543.272812 C867.232893,540.343662 869.595743,537.960559 872.5,537.960559 C875.404256,537.960559 877.767107,540.343544 877.767107,543.272812 C877.767107,546.20208 875.404373,548.585066 872.5,548.585066 Z M879.167094,543.390723 C879.167795,543.351341 879.170016,543.312312 879.170016,543.272812 C879.170016,539.563444 876.177844,536.545624 872.5,536.545624 C868.822156,536.545624 865.829984,539.563444 865.829984,543.272812 C865.829984,543.312312 865.832322,543.351341 865.832906,543.390723 L862.402793,543.390723 L862.402793,533.128322 L882.59709,533.128322 L882.59709,543.390723 L879.167094,543.390723 L879.167094,543.390723 Z M873.201455,543.45133 L874.608222,544.870391 C874.88214,545.146657 874.88214,545.594602 874.608222,545.870868 C874.471205,546.008942 874.291632,546.078038 874.112177,546.078038 C873.932604,546.078038 873.753149,546.008942 873.616131,545.870868 L872.003955,544.244754 C871.872432,544.111986 871.798545,543.932054 871.798545,543.744457 L871.798545,540.028839 C871.798545,539.638199 872.11268,539.321372 872.5,539.321372 C872.88732,539.321372 873.201455,539.638199 873.201455,540.028839 L873.201455,543.45133 Z" id="calendar"></path>
        </g>
    </g>
</svg>