<?xml version="1.0" encoding="UTF-8"?>
<svg width="22px" height="22px" viewBox="0 0 22 22" version="1.1" xmlns="http://www.w3.org/2000/svg" xmlns:xlink="http://www.w3.org/1999/xlink">
    <!-- Generator: Sketch 46.2 (44496) - http://www.bohemiancoding.com/sketch -->
    <title>check</title>
    <desc>Created with Sketch.</desc>
    <defs></defs>
    <g id="Page-1" stroke="none" stroke-width="1" fill="none" fill-rule="evenodd">
        <g id="20.Add_post" transform="translate(-1129.000000, -899.000000)" fill-rule="nonzero" fill="#D0D7DD">
            <path d="M1140.04911,899.000052 C1139.89649,899.000052 1139.7436,899.002672 1139.59074,899.008172 C1138.77556,899.038659 1137.95445,899.161392 1137.15157,899.376502 C1131.29625,900.94537 1127.80676,906.993616 1129.37569,912.848742 C1130.94462,918.703839 1136.99311,922.193195 1142.84843,920.624327 C1148.70375,919.05546 1152.19324,913.0072 1150.62431,907.152074 C1150.5442,906.772879 1150.26131,906.468877 1149.88883,906.361723 C1149.51636,906.254569 1149.11516,906.361768 1148.84578,906.64042 C1148.57641,906.919073 1148.48286,907.323659 1148.60257,907.692273 C1149.8784,912.453592 1147.06968,917.326877 1142.30821,918.602688 C1137.54674,919.878447 1132.67326,917.069834 1131.3974,912.308543 C1130.1216,907.547224 1132.93032,902.673953 1137.69179,901.398141 C1140.29273,900.701265 1143.07122,901.219227 1145.24666,902.805931 C1145.54932,903.026707 1145.94678,903.069252 1146.28931,902.91754 C1146.63185,902.765827 1146.86742,902.442906 1146.9073,902.070417 C1146.94717,901.697928 1146.78529,901.332461 1146.48263,901.111685 C1144.59397,899.734146 1142.33862,899.009586 1140.04911,899 L1140.04911,899.000052 Z" id="check"></path>
        </g>
    </g>
</svg>