<?xml version="1.0" encoding="UTF-8"?>
<svg width="24px" height="22px" viewBox="0 0 24 22" version="1.1" xmlns="http://www.w3.org/2000/svg" xmlns:xlink="http://www.w3.org/1999/xlink">
    <!-- Generator: Sketch 46.2 (44496) - http://www.bohemiancoding.com/sketch -->
    <title>check-active</title>
    <desc>Created with Sketch.</desc>
    <defs></defs>
    <g id="Page-1" stroke="none" stroke-width="1" fill="none" fill-rule="evenodd">
        <g id="20.Add_post" transform="translate(-1022.000000, -899.000000)" fill-rule="nonzero" fill="#64DD83">
            <g id="check-active" transform="translate(1022.000000, 899.000000)">
                <path d="M11.0491108,5.23828892e-05 C10.8964874,5.23828892e-05 10.743602,0.00267152735 10.5907429,0.00817173071 C9.77555526,0.0386585722 8.95444813,0.161391681 8.15157094,0.376502016 C2.29624887,1.94536955 -1.19324051,7.99361579 0.375687272,13.848742 C1.94461522,19.7038395 7.99310661,23.1931947 13.8484289,21.6243271 C19.7037513,20.0554596 23.1932405,14.0072003 21.6243127,8.15207403 C21.5442012,7.77287934 21.2613051,7.46887704 20.8888341,7.3617232 C20.5163632,7.25456937 20.1151622,7.36176805 19.8457844,7.64042034 C19.5764066,7.91907263 19.482856,8.32365941 19.6025698,8.69227257 C20.8784041,13.4535917 18.0696829,18.3268767 13.3082097,19.6026881 C8.54673644,20.8784472 3.67326431,18.0698338 2.39740411,13.3085435 C1.12159593,8.54722435 3.93031702,3.67395251 8.69179023,2.39814105 C11.2927268,1.70126528 14.0712219,2.21922729 16.2466621,3.80593119 C16.5493215,4.02670744 16.9467776,4.06925238 17.2893124,3.91753974 C17.6318473,3.7658271 17.8674217,3.44290564 17.9072971,3.07041675 C17.9471725,2.69792786 17.7852909,2.33246147 17.4826315,2.11168522 C15.5939724,0.734146192 13.3386191,0.00958606872 11.0491108,0 L11.0491108,5.23828892e-05 Z" id="Shape"></path>
                <path d="M23.710009,1.29455307 C23.3233543,0.901815643 22.6964826,0.901815643 22.3098279,1.29455307 L11.2085736,12.5717973 L8.6901242,10.0134115 C8.3035174,9.62062545 7.6765978,9.62062545 7.289991,10.0134115 C6.90333633,10.4061976 6.90333633,11.0430099 7.289991,11.435796 L10.5085548,14.7053983 C10.7018582,14.9018156 10.9552877,15 11.2086693,15 C11.4620509,15 11.7154325,14.9018156 11.9087838,14.7053983 L23.710009,2.71693755 C24.0966637,2.32415149 24.0966637,1.68733913 23.710009,1.29455307 Z" id="Shape"></path>
            </g>
        </g>
    </g>
</svg>