<?xml version="1.0" encoding="UTF-8"?>
<svg width="31px" height="31px" viewBox="0 0 31 31" version="1.1" xmlns="http://www.w3.org/2000/svg" xmlns:xlink="http://www.w3.org/1999/xlink">
    <!-- Generator: Sketch 46.2 (44496) - http://www.bohemiancoding.com/sketch -->
    <title>exit</title>
    <desc>Created with Sketch.</desc>
    <defs></defs>
    <g id="Page-1" stroke="none" stroke-width="1" fill="none" fill-rule="evenodd">
        <g id="19.Publishing-(calendar)-inner" transform="translate(-35.000000, -844.000000)" fill="#FFFFFF">
            <g id="exit" transform="translate(35.000000, 844.000000)">
                <path d="M28.5039314,21.8908148 C28.0292311,21.6157198 27.4215036,21.7781493 27.1467747,22.254025 C24.8135989,26.2959166 20.4521705,29.009377 15.4681823,29.009377 C8.03441236,29.009377 1.98653671,22.949061 1.98653671,15.5 C1.98653671,8.05093899 8.03441236,1.99062298 15.4681823,1.99062298 C20.4554813,1.99062298 24.8149232,4.7066048 27.1467085,8.74584231 C27.4213712,9.22171804 28.0292311,9.38408111 28.5038652,9.10905254 C28.9786978,8.83382491 29.1409263,8.22491364 28.8663298,7.74910425 C26.182873,3.10062371 21.1710742,0 15.4681823,0 C6.91887674,0 0,6.93237886 0,15.5 C0,24.0668913 6.91814837,31 15.4681823,31 C21.1735242,31 26.1840649,27.8971867 28.866396,23.250763 C29.1409925,22.7749537 28.978764,22.1661087 28.5039314,21.8908148 Z" id="Combined-Shape" fill-rule="nonzero" opacity="0.300000012"></path>
                <polygon id="Path" opacity="0.3" points="31 15.4998129 25.2186334 11 25.2186334 14.1897692 11 14.1897692 11 16.8098565 25.2190176 16.8098565 25.2190176 20"></polygon>
            </g>
        </g>
    </g>
</svg>