<?xml version="1.0" encoding="UTF-8"?>
<svg width="24px" height="24px" viewBox="0 0 24 24" version="1.1" xmlns="http://www.w3.org/2000/svg" xmlns:xlink="http://www.w3.org/1999/xlink">
    <!-- Generator: Sketch 46.2 (44496) - http://www.bohemiancoding.com/sketch -->
    <title>image</title>
    <desc>Created with Sketch.</desc>
    <defs></defs>
    <g id="Page-1" stroke="none" stroke-width="1" fill="none" fill-rule="evenodd">
        <g id="20.Add_post" transform="translate(-394.000000, -144.000000)" fill-rule="nonzero" fill="#97ACC0">
            <path d="M395.745455,166.315789 L416.254545,166.315789 L416.254545,152 L395.745455,152 L395.745455,166.315789 Z M415.381818,165.473684 L397.337745,165.473684 L403.588218,160.163789 L408.083636,164.501053 C408.254255,164.665684 408.530036,164.665684 408.700655,164.501053 C408.871273,164.336421 408.871273,164.070316 408.700655,163.905684 L406.603055,161.881684 L410.609309,157.648421 L415.381818,161.869474 L415.381818,165.473684 Z M415.111273,150.315789 L418,150.315789 L418,168 L394,168 L394,150.315789 L397.325091,150.315789 C398.106182,149.648 402.261673,146.122947 404.633309,144.667368 C405.031273,144.258947 405.592436,144 406.218182,144 C406.843927,144 407.405091,144.258947 407.803055,144.667368 C410.174691,146.122947 414.330182,149.648 415.111273,150.315789 Z M404.9392,145.839579 C404.920436,145.921684 404.909091,146.010105 404.909091,146.105263 C404.909091,146.801684 405.496436,147.368421 406.218182,147.368421 C406.939927,147.368421 407.527273,146.801684 407.527273,146.105263 C407.527273,146.010105 407.515927,145.921684 407.497164,145.84 C407.4928,145.821895 407.484945,145.805053 407.480145,145.787368 C407.416873,145.562105 407.299055,145.387368 407.192145,145.271579 C407.189964,145.269053 407.189527,145.266105 407.187345,145.264 C406.947782,145.006737 406.603927,144.842105 406.218182,144.842105 C405.832436,144.842105 405.488582,145.006737 405.249018,145.264 C405.246836,145.266526 405.2464,145.269474 405.244218,145.271579 C405.137309,145.387368 405.019491,145.561684 404.956218,145.786947 C404.951418,145.804632 404.943127,145.821474 404.9392,145.839579 Z M404.036364,146.084211 C402.217164,147.361263 399.889164,149.276211 398.649455,150.315789 L413.786909,150.315789 C412.5472,149.276211 410.219636,147.361263 408.4,146.084211 C408.4,146.091368 408.4,146.098105 408.4,146.105263 C408.4,147.266105 407.421236,148.210526 406.218182,148.210526 C405.015127,148.210526 404.036364,147.266105 404.036364,146.105263 C404.036364,146.098105 404.036364,146.091368 404.036364,146.084211 Z M396.618182,152.842105 L415.381818,152.842105 L415.381818,160.727158 L410.8768,156.742316 C410.791273,156.666947 410.676945,156.624421 410.562618,156.632 C410.446982,156.637053 410.337891,156.686316 410.259782,156.768842 L405.986036,161.285474 L403.916364,159.288421 C403.753164,159.131368 403.492218,159.123789 403.319418,159.269895 L396.618182,164.962947 L396.618182,152.842105 Z M400.109091,154.105263 C398.769018,154.105263 397.678982,155.157053 397.678982,156.450105 C397.678982,157.742737 398.769018,158.794526 400.109091,158.794526 C401.449164,158.794526 402.5392,157.742737 402.5392,156.450105 C402.5392,155.157053 401.449164,154.105263 400.109091,154.105263 Z M400.109091,157.952842 C399.250327,157.952842 398.551709,157.278737 398.551709,156.450526 C398.551709,155.622316 399.250327,154.947368 400.109091,154.947368 C400.967855,154.947368 401.666473,155.621895 401.666473,156.450105 C401.666473,157.278316 400.967855,157.952842 400.109091,157.952842 Z M417.127273,167.157895 L417.127273,151.157895 L414.945455,151.157895 L397.490909,151.157895 L394.872727,151.157895 L394.872727,167.157895 L417.127273,167.157895 Z" id="image"></path>
        </g>
    </g>
</svg>