<?xml version="1.0" encoding="UTF-8"?>
<svg width="24px" height="22px" viewBox="0 0 24 22" version="1.1" xmlns="http://www.w3.org/2000/svg" xmlns:xlink="http://www.w3.org/1999/xlink">
    <!-- Generator: Sketch 46.2 (44496) - http://www.bohemiancoding.com/sketch -->
    <title>link</title>
    <desc>Created with Sketch.</desc>
    <defs></defs>
    <g id="Page-1" stroke="none" stroke-width="1" fill="none" fill-rule="evenodd">
        <g id="20.Add_post" transform="translate(-291.000000, -145.000000)" fill-rule="nonzero" fill="#97ACC0">
            <path d="M303.685998,154.42927 C303.949461,154.169929 304.376968,154.169929 304.63546,154.42927 C306.246065,156.01468 306.246065,158.59831 304.63546,160.183719 L298.918807,165.810943 C298.113505,166.603648 297.054681,167 295.995857,167 C294.937034,167 293.87821,166.603648 293.072908,165.810943 L292.212925,164.964413 C291.427506,164.196174 291,163.173488 291,162.087189 C291,161.00089 291.432477,159.978203 292.212925,159.209964 L297.929577,153.58274 C298.193041,153.323399 298.615576,153.323399 298.879039,153.58274 C299.142502,153.842082 299.142502,154.258007 298.879039,154.517349 L293.162386,160.144573 C292.073737,161.216192 292.073737,162.958185 293.162386,164.029804 L294.02237,164.876335 C295.111019,165.947954 296.880696,165.947954 297.969345,164.876335 L303.685998,159.24911 C304.774648,158.177491 304.774648,156.435498 303.685998,155.363879 C303.422535,155.104537 303.422535,154.688612 303.685998,154.42927 Z M313.792046,147.035587 C314.572494,147.803826 315,148.826512 315,149.912811 C315,150.99911 314.567523,152.021797 313.787075,152.790036 L308.070423,158.41726 C307.941176,158.549377 307.767191,158.612989 307.598177,158.612989 C307.429163,158.612989 307.255178,158.544484 307.125932,158.41726 C306.862469,158.157918 306.862469,157.741993 307.125932,157.482651 L312.842585,151.855427 C313.931234,150.783808 313.931234,149.041815 312.842585,147.970196 L311.982601,147.123665 C310.893952,146.052046 309.124275,146.052046 308.035626,147.123665 L302.318973,152.75089 C301.230323,153.822509 301.230323,155.564502 302.318973,156.636121 C302.582436,156.895463 302.582436,157.311388 302.318973,157.57073 C302.05551,157.830071 301.632974,157.830071 301.369511,157.57073 C299.758906,155.98532 299.758906,153.40169 301.369511,151.816281 L307.086164,146.189057 C308.696769,144.603648 311.321458,144.603648 312.932063,146.189057 L313.792046,147.035587 Z" id="link"></path>
        </g>
    </g>
</svg>