<?xml version="1.0" encoding="UTF-8"?>
<svg width="32px" height="32px" viewBox="0 0 32 32" version="1.1" xmlns="http://www.w3.org/2000/svg" xmlns:xlink="http://www.w3.org/1999/xlink">
    <!-- Generator: Sketch 46.2 (44496) - http://www.bohemiancoding.com/sketch -->
    <title>logo</title>
    <desc>Created with Sketch.</desc>
    <defs></defs>
    <g id="Page-1" stroke="none" stroke-width="1" fill="none" fill-rule="evenodd" opacity="0.450000018">
        <g id="20.Add_post" transform="translate(-34.000000, -24.000000)" fill-rule="nonzero" fill="#1B406E">
            <path d="M50.0005057,24 C58.8226716,24 66,30.736525 66,39.0169385 C66,47.2980694 58.8226716,54.0351683 50.0005057,54.0351683 C48.6287242,54.0351683 47.2693674,53.8721855 45.9529195,53.5502372 L41.8469658,55.8599726 C41.6783646,55.9549502 41.4948825,56 41.3140009,56 C40.9363456,56 40.5696704,55.803732 40.3702961,55.4540938 C40.07528,54.9368818 40.2583287,54.2803598 40.7790133,53.9873925 L45.2669565,51.462738 C45.5164633,51.3224236 45.8120573,51.2858385 46.0887252,51.3615911 C47.3538848,51.7076425 48.6700437,51.8831072 50.0005057,51.8831072 C57.6277264,51.8831072 63.8328886,46.1112795 63.8328886,39.0169385 C63.8328886,31.9231714 57.6277264,26.152061 50.0005057,26.152061 C42.372707,26.152061 36.1671114,31.9231714 36.1671114,39.017082 C36.1671114,42.8136046 37.9581567,46.3975036 41.0806752,48.8497054 C41.5500716,49.2182818 41.6295323,49.8950332 41.2583784,50.3611696 C40.8873689,50.8273061 40.2060291,50.9065019 39.7363438,50.5376387 C36.0908291,47.6748236 34,43.4755786 34,39.0169385 C34,30.736525 41.1779063,24 50.0005057,24 Z M50.4550212,34.3083724 C50.838022,34.4845545 51.08305,34.8654693 51.0829056,35.2846908 L51.0829056,40.4284036 L57.663267,34.8914375 C58.1198051,34.5072229 58.8034565,34.5634634 59.1903582,35.0168309 C59.5772598,35.4703419 59.5207704,36.1492454 59.0642323,36.5334601 L50.6999047,43.5715605 C50.5002415,43.7395647 50.2510237,43.8266515 49.9992054,43.8266515 C49.8447626,43.8266515 49.6894529,43.7939402 49.5438231,43.7269393 C49.1608222,43.5507573 48.9157942,43.169699 48.9157942,42.750621 L48.9157942,37.6069081 L42.3362996,43.1435873 C41.8799059,43.5278019 41.19611,43.4717049 40.8092084,43.0183374 C40.4223068,42.5649698 40.4787962,41.8860663 40.9353343,41.5018517 L49.2989395,34.4637512 C49.6211167,34.192735 50.0721648,34.1320469 50.4550212,34.3083724 Z" id="logo"></path>
        </g>
    </g>
</svg>