<?xml version="1.0" encoding="UTF-8"?>
<svg width="30px" height="30px" viewBox="0 0 30 30" version="1.1" xmlns="http://www.w3.org/2000/svg" xmlns:xlink="http://www.w3.org/1999/xlink">
    <!-- Generator: Sketch 46.2 (44496) - http://www.bohemiancoding.com/sketch -->
    <title>plus</title>
    <desc>Created with Sketch.</desc>
    <defs></defs>
    <g id="Page-1" stroke="none" stroke-width="1" fill="none" fill-rule="evenodd">
        <g id="20.Add_post" transform="translate(-35.000000, -145.000000)" fill-rule="nonzero" fill="#FFFFFF">
            <path d="M49.999625,145 C41.7287,145 35,151.729 35,160 C35,168.270925 41.7287,175 49.999625,175 C58.270775,175 65,168.270925 65,160 C65,151.729 58.270775,145 49.999625,145 Z M49.999625,173.03275 C42.81365,173.03275 36.96725,167.1862 36.96725,160 C36.96725,152.813725 42.813575,146.96725 49.999625,146.96725 C57.1859,146.96725 63.032525,152.813725 63.032525,160 C63.032675,167.1862 57.1859,173.03275 49.999625,173.03275 Z M55.96085,159.0163 L50.983625,159.0163 L50.983625,154.039 C50.983625,153.495775 50.543225,153.055375 50,153.055375 C49.456775,153.055375 49.016375,153.49585 49.016375,154.039 L49.016375,159.0166 L44.0393,159.0166 C43.49615,159.0166 43.055675,159.457075 43.055675,160.000225 C43.055675,160.54345 43.49615,160.98385 44.0393,160.98385 L49.01615,160.98385 L49.01615,165.961 C49.01615,166.50415 49.45655,166.94455 49.999775,166.94455 C50.542925,166.94455 50.9834,166.50415 50.9834,165.961 L50.9834,160.983625 L55.960925,160.983625 C56.504,160.983625 56.944475,160.54315 56.944475,160 C56.944475,159.456775 56.504,159.0163 55.96085,159.0163 Z" id="plus"></path>
        </g>
    </g>
</svg>