<?xml version="1.0" encoding="UTF-8"?>
<svg width="32px" height="30px" viewBox="0 0 32 30" version="1.1" xmlns="http://www.w3.org/2000/svg" xmlns:xlink="http://www.w3.org/1999/xlink">
    <!-- Generator: Sketch 46.2 (44496) - http://www.bohemiancoding.com/sketch -->
    <title>settings</title>
    <desc>Created with Sketch.</desc>
    <defs></defs>
    <g id="Page-1" stroke="none" stroke-width="1" fill="none" fill-rule="evenodd" >
        <g id="20.Add_post" transform="translate(-34.000000, -465.000000)" fill-rule="nonzero" fill="#FFFFFF">
            <path d="M50,465 C49.45,465 49,465.435484 49,465.967742 L49,470.903226 C46.7,471.33871 45,473.322581 45,475.645161 C45,477.967742 46.7,479.951613 49,480.387097 L49,494.032258 C49,494.564516 49.45,495 50,495 C50.55,495 51,494.564516 51,494.032258 L51,480.387097 C53.3,479.951613 55,477.967742 55,475.645161 C55,473.322581 53.3,471.33871 51,470.903226 L51,465.967742 C51,465.435484 50.55,465 50,465 Z M53,475.645161 C53,477.241935 51.65,478.548387 50,478.548387 C48.35,478.548387 47,477.241935 47,475.645161 C47,474.048387 48.35,472.741935 50,472.741935 C51.65,472.741935 53,474.048387 53,475.645161 Z M62,479.612903 C64.3,480.048387 66,482.032258 66,484.354839 C66,486.677419 64.3,488.66129 62,489.096774 L62,494.032258 C62,494.564516 61.55,495 61,495 C60.45,495 60,494.564516 60,494.032258 L60,489.096774 C57.7,488.66129 56,486.677419 56,484.354839 C56,482.032258 57.7,480.048387 60,479.612903 L60,465.967742 C60,465.435484 60.45,465 61,465 C61.55,465 62,465.435484 62,465.967742 L62,479.612903 Z M61,487.258065 C62.65,487.258065 64,485.951613 64,484.354839 C64,482.758065 62.65,481.451613 61,481.451613 C59.35,481.451613 58,482.758065 58,484.354839 C58,485.951613 59.35,487.258065 61,487.258065 Z M38,489.096774 C35.7,488.66129 34,486.677419 34,484.354839 C34,482.032258 35.7,480.048387 38,479.612903 L38,465.967742 C38,465.435484 38.45,465 39,465 C39.55,465 40,465.435484 40,465.967742 L40,479.612903 C42.3,480.048387 44,482.032258 44,484.354839 C44,486.677419 42.3,488.66129 40,489.096774 L40,494.032258 C40,494.564516 39.55,495 39,495 C38.45,495 38,494.564516 38,494.032258 L38,489.096774 Z M39,481.451613 C37.35,481.451613 36,482.758065 36,484.354839 C36,485.951613 37.35,487.258065 39,487.258065 C40.65,487.258065 42,485.951613 42,484.354839 C42,482.758065 40.65,481.451613 39,481.451613 Z" id="settings"></path>
        </g>
    </g>
</svg>