<?xml version="1.0" encoding="UTF-8"?>
<svg width="20px" height="24px" viewBox="0 0 20 24" version="1.1" xmlns="http://www.w3.org/2000/svg" xmlns:xlink="http://www.w3.org/1999/xlink">
    <!-- Generator: Sketch 46.2 (44496) - http://www.bohemiancoding.com/sketch -->
    <title>status</title>
    <desc>Created with Sketch.</desc>
    <defs></defs>
    <g id="Page-1" stroke="none" stroke-width="1" fill="none" fill-rule="evenodd">
        <g id="20.Add_post" transform="translate(-171.000000, -144.000000)" fill-rule="nonzero" fill="#4C83C7">
            <path d="M190.816875,150.21975 L185.816875,144.21975 C185.7,144.07875 185.540625,144 185.375,144 L171.625,144 C171.28,144 171,144.336 171,144.75 L171,167.25 C171,167.664 171.28,168 171.625,168 L190.375,168 C190.72,168 191,167.664 191,167.25 L191,150.75 C191,150.55125 190.934375,150.36 190.816875,150.21975 Z M186,146.5605 L188.86625,150 L186,150 L186,146.5605 Z M189.75,166.5 L172.25,166.5 L172.25,145.5 L184.75,145.5 L184.75,150.75 C184.75,151.164 185.03,151.5 185.375,151.5 L189.75,151.5 L189.75,166.5 Z M174.75,154.5 L174.75,156 L187.25,156 L187.25,154.5 L174.75,154.5 Z M174.75,158.25 L174.75,159.75 L187.25,159.75 L187.25,158.25 L174.75,158.25 Z M174.75,162 L174.75,163.5 L187.25,163.5 L187.25,162 L174.75,162 Z M174.75,147.75 L174.75,149.25 L177.875,149.25 L177.875,147.75 L174.75,147.75 Z M174.75,150 L174.75,151.5 L177.875,151.5 L177.875,150 L174.75,150 Z" id="status"></path>
        </g>
    </g>
</svg>