<?xml version="1.0" encoding="UTF-8"?>
<svg width="36px" height="28px" viewBox="0 0 36 28" version="1.1" xmlns="http://www.w3.org/2000/svg" xmlns:xlink="http://www.w3.org/1999/xlink">
    <!-- Generator: Sketch 46.2 (44496) - http://www.bohemiancoding.com/sketch -->
    <title>statisticks</title>
    <desc>Created with Sketch.</desc>
    <defs></defs>
    <g id="Page-1" stroke="none" stroke-width="1" fill="none" fill-rule="evenodd" >
        <g id="20.Add_post" transform="translate(-32.000000, -306.000000)" fill-rule="nonzero" fill="#FFFFFF">
            <path d="M63.5887131,306 C61.1564818,306 59.177485,307.854981 59.177485,310.135039 C59.177485,311.392131 59.7797193,312.519148 60.727306,313.278211 L56.582254,320.660473 C56.2167251,320.568278 55.8330787,320.51832 55.4369617,320.51832 C54.490375,320.51832 53.6130823,320.800254 52.8938482,321.277825 L49.7394416,318.610736 C50.1000292,318.0118 50.3069701,317.321111 50.3069701,316.585812 C50.3069701,314.305699 48.3279733,312.450773 45.8955655,312.450773 C43.4633342,312.450773 41.4843374,314.305754 41.4843374,316.585812 C41.4843374,317.686471 41.9463367,318.687161 42.6970413,319.428855 L37.9981078,326.00783 C37.5052851,325.829065 36.9705213,325.729922 36.4111693,325.729922 C33.9788203,325.729922 32,327.584903 32,329.864961 C32,332.145019 33.9788203,334 36.4112281,334 C38.8434594,334 40.8224562,332.145019 40.8224562,329.864961 C40.8224562,328.764302 40.3604569,327.763503 39.6097523,327.021808 L44.3086858,320.442833 C44.8015085,320.621599 45.3362723,320.720741 45.8956244,320.720741 C46.8423875,320.720741 47.7195037,320.438808 48.4389143,319.961181 L51.5931445,322.628271 C51.2327333,323.227206 51.0257336,323.917841 51.0257336,324.653194 C51.0257336,326.933252 53.0047304,328.788233 55.4369617,328.788233 C57.8693695,328.788233 59.8483663,326.933252 59.8483663,324.653194 C59.8483663,323.396102 59.2459555,322.269085 58.2985453,321.510077 L62.4434797,314.127871 C62.8090085,314.220066 63.1926549,314.270078 63.5887719,314.270078 C66.0211797,314.270078 68,312.415097 68,310.135039 C67.9999412,307.854981 66.0211209,306 63.5887131,306 Z M36.4112281,332.18064 C35.0490538,332.18064 33.9408792,331.141849 33.9408792,329.864961 C33.9408792,328.588073 35.0490538,327.549282 36.4112281,327.549282 C37.7734023,327.549282 38.881577,328.588073 38.881577,329.864961 C38.881577,331.141849 37.7734023,332.18064 36.4112281,332.18064 Z M45.8955655,318.901436 C44.5333913,318.901436 43.4252166,317.862645 43.4252166,316.585867 C43.4252166,315.30898 44.5333913,314.270188 45.8955655,314.270188 C47.2577398,314.270188 48.3660909,315.30898 48.3660909,316.585867 C48.3660909,317.862645 47.2577398,318.901436 45.8955655,318.901436 Z M52.9666716,324.653249 C52.9666716,323.376527 54.0748463,322.337735 55.4370205,322.337735 C56.7991948,322.337735 57.9075459,323.376527 57.9075459,324.653249 C57.9075459,325.930137 56.7991948,326.968928 55.4370205,326.968928 C54.0748463,326.968928 52.9666716,325.930137 52.9666716,324.653249 Z M63.5887131,312.450718 C62.2265388,312.450718 61.1183642,311.411927 61.1183642,310.135039 C61.1183642,308.858151 62.2265388,307.81936 63.5887131,307.81936 C64.9508873,307.81936 66.059062,308.858151 66.059062,310.135039 C66.059062,311.411982 64.9508873,312.450718 63.5887131,312.450718 Z" id="statisticks"></path>
        </g>
    </g>
</svg>