<?xml version="1.0" encoding="UTF-8"?>
<svg width="30px" height="30px" viewBox="0 0 30 30" version="1.1" xmlns="http://www.w3.org/2000/svg" xmlns:xlink="http://www.w3.org/1999/xlink">
    <!-- Generator: Sketch 46.2 (44496) - http://www.bohemiancoding.com/sketch -->
    <title>users</title>
    <desc>Created with Sketch.</desc>
    <defs></defs>
    <g id="Page-1" stroke="none" stroke-width="1" fill="none" fill-rule="evenodd">
        <g id="20.Add_post" transform="translate(-35.000000, -385.000000)" fill-rule="nonzero" fill="#FFFFFF">
            <path d="M48.5934934,405.624139 C52.4699306,405.624139 55.6252318,401.787115 55.6252318,397.070043 C55.6252318,392.351383 52.4704604,388.515418 48.5934934,388.515418 C46.6748795,388.515418 44.8839612,389.433083 43.5508398,391.097277 C42.2669952,392.70319 41.5601653,394.823567 41.5622847,397.070043 C41.5628146,401.787115 44.7154665,405.624139 48.5934934,405.624139 Z M48.5934934,390.390484 C51.435119,390.390484 53.7495364,393.38614 53.7495364,397.070043 C53.7495364,400.751828 51.435119,403.750132 48.5934934,403.750132 C45.7502782,403.750132 43.4374503,400.752358 43.4358608,397.070043 C43.4358608,393.386669 45.7481587,390.390484 48.5934934,390.390484 Z M54.4992847,404.686871 C53.9805542,404.686871 53.561437,405.107026 53.561437,405.624669 C53.561437,406.143372 53.9805542,406.562467 54.4992847,406.562467 C57.7038627,406.562467 60.3128808,409.170287 60.3128808,412.376285 C60.3128808,412.789022 59.9758915,413.125464 59.5620728,413.125464 L37.6238542,413.125464 C37.2100355,413.125464 36.8751656,412.789022 36.8751656,412.376285 C36.8751656,409.170287 39.4825942,406.562467 42.6866423,406.562467 C43.2053728,406.562467 43.62449,406.143372 43.62449,405.624669 C43.62449,405.107026 43.2053728,404.686871 42.6866423,404.686871 C38.4477825,404.686871 35,408.135001 35,412.375755 C35,413.822189 36.1773433,415 37.6238542,415 L59.5615429,415 C61.0080538,415 62.1875166,413.822189 62.1875166,412.375755 C62.1875166,408.134471 58.7381444,404.686871 54.4992847,404.686871 Z M49.2785991,387.474303 C49.9509882,387.076931 50.6662958,386.875066 51.4065066,386.875066 C54.2481323,386.875066 56.5625497,389.872841 56.5625497,393.554625 C56.5625497,394.214793 56.4888995,394.863834 56.3426588,395.482675 C56.2255603,395.985483 56.5387061,396.49147 57.0420707,396.608562 C57.1136014,396.627106 57.1851322,396.634524 57.2561331,396.634524 C57.6831982,396.634524 58.0673449,396.342588 58.1680178,395.911307 C58.3460499,395.151531 58.4377153,394.357847 58.4377153,393.555155 C58.4377153,388.838614 55.282414,385 51.4065066,385 C50.3404334,385 49.2754199,385.296704 48.3248556,385.858853 C47.8797753,386.122708 47.7319451,386.697044 47.9952843,387.14422 C48.2586234,387.589276 48.8356382,387.737099 49.2785991,387.474303 Z M57.5003974,400.937268 C56.9816669,400.937268 56.5625497,401.356363 56.5625497,401.875066 C56.5625497,402.39271 56.9816669,402.812864 57.5003974,402.812864 C60.7049754,402.812864 63.1253643,405.481615 63.1253643,408.688672 C63.1253643,408.795168 63.1031103,408.898485 63.0612515,408.993854 C62.8503683,409.466992 63.0628411,410.021193 63.5370635,410.232595 C63.6594606,410.287697 63.7898055,410.31207 63.9159116,410.31207 C64.2772744,410.31207 64.6190325,410.104906 64.7748106,409.756278 C64.9231707,409.418777 65,409.060083 65,408.688142 C65,404.448448 61.7392571,400.937268 57.5003974,400.937268 Z" id="users"></path>
        </g>
    </g>
</svg>