<?xml version="1.0" encoding="UTF-8"?>
<svg width="26px" height="21px" viewBox="0 0 26 21" version="1.1" xmlns="http://www.w3.org/2000/svg" xmlns:xlink="http://www.w3.org/1999/xlink">
    <!-- Generator: Sketch 46.2 (44496) - http://www.bohemiancoding.com/sketch -->
    <title>video</title>
    <desc>Created with Sketch.</desc>
    <defs></defs>
    <g id="Page-1" stroke="none" stroke-width="1" fill="none" fill-rule="evenodd">
        <g id="20.Add_post" transform="translate(-509.000000, -147.000000)" fill-rule="nonzero" fill="#97ACC0">
            <path d="M525.378655,157.114696 L520.447621,153.919043 C520.309552,153.830022 520.134724,153.824087 519.990828,153.903978 C519.847828,153.984326 519.758621,154.137717 519.758621,154.304348 L519.758621,160.695652 C519.758621,160.862283 519.847828,161.015674 519.991276,161.096022 C520.058517,161.133457 520.132483,161.152174 520.206897,161.152174 C520.290724,161.152174 520.374552,161.127978 520.447621,161.080957 L525.378655,157.885304 C525.507759,157.801304 525.586207,157.65613 525.586207,157.5 C525.586207,157.34387 525.507759,157.198696 525.378655,157.114696 Z M534.551724,147 C534.799172,147 535,147.204065 535,147.456522 L535,152.478261 L535,157.5 L535,162.521739 L535,167.543478 C535,167.795935 534.799172,168 534.551724,168 L530.068966,168 L513.931034,168 L509.448276,168 C509.200828,168 509,167.795935 509,167.543478 L509,162.521739 L509,157.5 L509,152.478261 L509,147.456522 C509,147.204065 509.200828,147 509.448276,147 L513.931034,147 L530.068966,147 L534.551724,147 Z M513.482759,157.043478 L513.482759,152.934783 L509.896552,152.934783 L509.896552,157.043478 L513.482759,157.043478 Z M509.896552,157.956522 L509.896552,162.065217 L513.482759,162.065217 L513.482759,157.956522 L509.896552,157.956522 Z M520.655172,159.864326 L520.655172,155.135674 L524.302793,157.5 L520.655172,159.864326 Z M514.37931,162.521739 L514.37931,167.086957 L529.62069,167.086957 L529.62069,162.521739 L529.62069,157.5 L529.62069,152.478261 L529.62069,147.913043 L514.37931,147.913043 L514.37931,152.478261 L514.37931,157.5 L514.37931,162.521739 Z M534.103448,157.043478 L534.103448,152.934783 L530.517241,152.934783 L530.517241,157.043478 L534.103448,157.043478 Z M530.517241,157.956522 L530.517241,162.065217 L534.103448,162.065217 L534.103448,157.956522 L530.517241,157.956522 Z M534.103448,147.913043 L530.517241,147.913043 L530.517241,152.021739 L534.103448,152.021739 L534.103448,147.913043 Z M509.896552,147.913043 L509.896552,152.021739 L513.482759,152.021739 L513.482759,147.913043 L509.896552,147.913043 Z M509.896552,167.086957 L513.482759,167.086957 L513.482759,162.978261 L509.896552,162.978261 L509.896552,167.086957 Z M534.103448,167.086957 L534.103448,162.978261 L530.517241,162.978261 L530.517241,167.086957 L534.103448,167.086957 Z" id="video"></path>
        </g>
    </g>
</svg>